# xmcd
#
# Track frame offsets:
#	150
#	16409
#	35854
#	53046
#	70433
#	85505
#	103872
#	120933
#	133251
#	145867
#	161256
#	176212
#	190026
#	203194
#	219503
#	231472
#	247061
#	263918
#	278360
#	293275
#
# Disc length: 4138 seconds
# Revision: 0
# Processed by: cddbd v1.5.2PL0 Copyright (c) Steve Scherf et al.
# Submitted via: dBpowerAMP V12.0
#
DISCID=24102814
DTITLE=Various Artist - Country Radio July 2006
DYEAR=2006
DGENRE=Country
TTITLE0=George Canyon - Somebody Wrote Love
TTITLE1=Dixie Chicks - Everybody Knows
TTITLE2=Adam Gregory - Get It On
TTITLE3=Brooks and Dunn Feat Sheryl Crow and Vince Gill - Building Bridges
TTITLE4=Deric Ruttan - Invisible
TTITLE5=Charlie Major - You'd Better Go
TTITLE6=Bomshel - Ain't My Day To Care
TTITLE7=Jack Ingram - Love You
TTITLE8=Gretchen Wilson - California Girls
TTITLE9=Clint Black - Heartache
TTITLE10=Gord Bamford - I Would For You
TTITLE11=Mark McGuinn - Deep
TTITLE12=Lost Trailers The - Chicken Fried
TTITLE13=Matt Jenkins - Bad As I Want To Be
TTITLE14=Sawyer Brown - Keep Your Hands To Yourself
TTITLE15=Keith Urban - Live To Love Another Day
TTITLE16=Trent Tomlinson - One Wing In The Fire
TTITLE17=Jamey Johnson - Rebelicious
TTITLE18=odie PrevostC - He's Not Me
TTITLE19=Steve Azar - You Don't Know A Thing
EXTD=
EXTT0=
EXTT1=
EXTT2=
EXTT3=
EXTT4=
EXTT5=
EXTT6=
EXTT7=
EXTT8=
EXTT9=
EXTT10=
EXTT11=
EXTT12=
EXTT13=
EXTT14=
EXTT15=
EXTT16=
EXTT17=
EXTT18=
EXTT19=
PLAYORDER=
